<svg width="76" height="76" viewBox="0 0 76 76" fill="none" xmlns="http://www.w3.org/2000/svg">
<g clip-path="url(#clip0_126_196)">
<path fill-rule="evenodd" clip-rule="evenodd" d="M74.1059 57.0148C75.298 55.7012 75.298 53.5715 74.1059 52.2579L54.896 31.0909C52.5118 28.4637 48.6461 28.4638 46.2619 31.0909L38.3684 39.7886L22.2112 21.9852C21.019 20.6716 19.0862 20.6716 17.8941 21.9852C16.702 23.2988 16.702 25.4285 17.8941 26.7421L34.0513 44.5455C36.4356 47.1726 40.3012 47.1726 42.6855 44.5455L50.5789 35.8478L69.7888 57.0148C70.981 58.3284 72.9138 58.3284 74.1059 57.0148Z" fill="#21A038"/>
<path fill-rule="evenodd" clip-rule="evenodd" d="M55 55.7143C55 57.5289 56.3431 59 58 59H73C74.6569 59 76 57.5289 76 55.7143V39.2857C76 37.4711 74.6569 36 73 36C71.3431 36 70 37.4711 70 39.2857V52.4286H58C56.3431 52.4286 55 53.8996 55 55.7143Z" fill="#21A038"/>
<path fill-rule="evenodd" clip-rule="evenodd" d="M4.25 0.500122C6.32107 0.500122 8 2.17905 8 4.25012V64.2501C8 66.3212 9.67893 68.0001 11.75 68.0001H71.75C73.8211 68.0001 75.5 69.679 75.5 71.7501C75.5 73.8212 73.8211 75.5001 71.75 75.5001H11.75C5.5368 75.5001 0.5 70.4633 0.5 64.2501V4.25012C0.5 2.17905 2.17893 0.500122 4.25 0.500122Z" fill="white"/>
<path fill-rule="evenodd" clip-rule="evenodd" d="M0 4.25012C0 1.90291 1.90279 0.00012207 4.25 0.00012207C6.59721 0.00012207 8.5 1.90291 8.5 4.25012V64.2501C8.5 66.045 9.95507 67.5001 11.75 67.5001H71.75C74.0972 67.5001 76 69.4029 76 71.7501C76 74.0973 74.0972 76.0001 71.75 76.0001H11.75C5.26065 76.0001 0 70.7395 0 64.2501V4.25012ZM4.25 1.00012C2.45507 1.00012 1 2.4552 1 4.25012V64.2501C1 70.1872 5.81294 75.0001 11.75 75.0001H71.75C73.5449 75.0001 75 73.545 75 71.7501C75 69.9552 73.5449 68.5001 71.75 68.5001H11.75C9.40279 68.5001 7.5 66.5973 7.5 64.2501V4.25012C7.5 2.4552 6.04492 1.00012 4.25 1.00012Z" fill="white"/>
</g>
</svg>
