<svg width="144" height="145" viewBox="0 0 144 145" fill="none" xmlns="http://www.w3.org/2000/svg">
<g clip-path="url(#clip0_176_295)">
<g filter="url(#filter0_f_176_295)">
<path d="M100.833 87.5137C105.657 81.518 108.543 73.9073 108.543 65.6251C108.543 46.2832 92.8038 30.6035 73.3887 30.6035C53.9735 30.6035 38.2344 46.2832 38.2344 65.6251C38.2344 73.9073 41.1202 81.518 45.9447 87.5137L45.9732 87.549C45.9732 87.549 59.7591 105.937 69.3542 117.442C71.4718 119.982 75.3065 119.982 77.4254 117.444C87.0542 105.909 100.853 87.5137 100.853 87.5137H100.833Z" fill="#21A038" fill-opacity="0.65"/>
</g>
<path d="M92.3424 83.5619C95.6946 79.3801 97.6998 74.072 97.6998 68.2955C97.6998 54.8052 86.7638 43.8691 73.2735 43.8691C59.7832 43.8691 48.8472 54.8052 48.8472 68.2955C48.8472 74.072 50.8523 79.3801 54.2046 83.5619L54.2243 83.5865C54.2243 83.5865 62.7026 94.9377 69.2581 102.964C71.355 105.531 75.1928 105.532 77.2909 102.966C83.8673 94.922 92.3565 83.5619 92.3565 83.5619H92.3424Z" fill="#21A038"/>
<path fill-rule="evenodd" clip-rule="evenodd" d="M72.5597 78.0285C77.5966 78.0285 81.6799 73.9453 81.6799 68.9083C81.6799 63.8713 77.5966 59.7881 72.5597 59.7881C67.5227 59.7881 63.4395 63.8713 63.4395 68.9083C63.4395 73.9453 67.5227 78.0285 72.5597 78.0285Z" fill="#48494D" fill-opacity="0.5"/>
</g>
<defs>
<filter id="filter0_f_176_295" x="1.09023" y="-6.54063" width="144.597" height="163.032" filterUnits="userSpaceOnUse" color-interpolation-filters="sRGB">
<feFlood flood-opacity="0" result="BackgroundImageFix"/>
<feBlend mode="normal" in="SourceGraphic" in2="BackgroundImageFix" result="shape"/>
<feGaussianBlur stdDeviation="18.5721" result="effect1_foregroundBlur_176_295"/>
</filter>
<clipPath id="clip0_176_295">
<rect width="144" height="145" fill="white"/>
</clipPath>
</defs>
</svg>
