<svg width="21" height="15" viewBox="0 0 21 15" fill="none" xmlns="http://www.w3.org/2000/svg">
<path d="M20.1167 2.93002C19.8834 2.0515 19.196 1.35961 18.3231 1.12481C16.7411 0.698143 10.3972 0.698143 10.3972 0.698143C10.3972 0.698143 4.05327 0.698143 2.47116 1.12481C1.59833 1.35965 0.910895 2.0515 0.677578 2.93002C0.253662 4.52238 0.253662 7.84469 0.253662 7.84469C0.253662 7.84469 0.253662 11.167 0.677578 12.7594C0.910895 13.6379 1.59833 14.3009 2.47116 14.5357C4.05327 14.9624 10.3972 14.9624 10.3972 14.9624C10.3972 14.9624 16.741 14.9624 18.3231 14.5357C19.196 14.3009 19.8834 13.6379 20.1167 12.7594C20.5406 11.167 20.5406 7.84469 20.5406 7.84469C20.5406 7.84469 20.5406 4.52238 20.1167 2.93002V2.93002ZM8.32233 10.8611V4.82828L13.6246 7.84476L8.32233 10.8611V10.8611Z" fill="white"/>
</svg>
