<svg width="20" height="24" viewBox="0 0 20 24" fill="none" xmlns="http://www.w3.org/2000/svg">
<g clip-path="url(#clip0_111_3042)">
<path fill-rule="evenodd" clip-rule="evenodd" d="M-1 12C-1 11.4477 -0.552285 11 0 11L19 11C19.5523 11 20 11.4477 20 12C20 12.5523 19.5523 13 19 13L-1.74846e-07 13C-0.552285 13 -1 12.5523 -1 12Z" fill="#21A038"/>
<path fill-rule="evenodd" clip-rule="evenodd" d="M11.2929 4.29289C11.6834 3.90237 12.3166 3.90237 12.7071 4.29289L19.7071 11.2929C20.0976 11.6834 20.0976 12.3166 19.7071 12.7071L12.7071 19.7071C12.3166 20.0976 11.6834 20.0976 11.2929 19.7071C10.9024 19.3166 10.9024 18.6834 11.2929 18.2929L17.5858 12L11.2929 5.70711C10.9024 5.31658 10.9024 4.68342 11.2929 4.29289Z" fill="#21A038"/>
</g>
<defs>
<clipPath id="clip0_111_3042">
<rect width="20" height="24" fill="white"/>
</clipPath>
</defs>
</svg>
