<svg width="20" height="20" viewBox="0 0 20 20" fill="none" xmlns="http://www.w3.org/2000/svg">
<path d="M16.8584 3.05779C15.1074 1.30261 12.7756 0.337269 10.2974 0.337269C5.18234 0.337269 1.02007 4.49954 1.02007 9.61461C1.02007 11.2486 1.44633 12.845 2.25705 14.2533L0.940674 19.0591L5.85934 17.7678C7.21333 18.5075 8.73866 18.8961 10.2932 18.8961H10.2974C15.4083 18.8961 19.6625 14.7339 19.6625 9.61879C19.6625 7.14065 18.6094 4.81296 16.8584 3.05779V3.05779ZM10.2974 17.3332C8.91 17.3332 7.55183 16.9613 6.36917 16.2592L6.08918 16.092L3.17225 16.8568L3.94954 14.0109L3.76567 13.7184C2.99255 12.4898 2.58719 11.0731 2.58719 9.61461C2.58719 5.36459 6.04739 1.90439 10.3016 1.90439C12.3618 1.90439 14.2967 2.70675 15.751 4.16522C17.2053 5.62368 18.0996 7.55855 18.0954 9.61879C18.0954 13.873 14.5474 17.3332 10.2974 17.3332V17.3332ZM14.5266 11.5578C14.2967 11.4408 13.1558 10.8808 12.9427 10.8056C12.7296 10.7262 12.575 10.6886 12.4203 10.9226C12.2657 11.1567 11.8227 11.6749 11.6848 11.8337C11.5511 11.9883 11.4132 12.0092 11.1834 11.8922C9.82101 11.211 8.92671 10.6761 8.02823 9.13403C7.79003 8.72449 8.26643 8.75374 8.7094 7.8678C8.78463 7.71317 8.74702 7.57945 8.68851 7.46244C8.63 7.34542 8.16614 6.20456 7.9739 5.74069C7.78585 5.28936 7.59362 5.35205 7.45153 5.34369C7.3178 5.33533 7.16318 5.33533 7.00856 5.33533C6.85394 5.33533 6.6032 5.39384 6.39007 5.62368C6.17694 5.85771 5.57935 6.41769 5.57935 7.55855C5.57935 8.69942 6.41096 9.80267 6.5238 9.95729C6.64081 10.1119 8.15778 12.4521 10.4855 13.4593C11.9565 14.0945 12.5332 14.1488 13.2687 14.0402C13.7158 13.9733 14.6394 13.4802 14.8316 12.9369C15.0238 12.3936 15.0238 11.9298 14.9653 11.8337C14.911 11.7292 14.7564 11.6707 14.5266 11.5578Z" fill="white"/>
</svg>
