<svg width="50" height="25" viewBox="0 0 50 25" fill="none" xmlns="http://www.w3.org/2000/svg">
<g opacity="0.7">
<path fill-rule="evenodd" clip-rule="evenodd" d="M2.5 11.5L48 11.5C48.5523 11.5 49 11.9477 49 12.5C49 13.0523 48.5523 13.5 48 13.5L2.5 13.5C1.94772 13.5 1.5 13.0523 1.5 12.5C1.5 11.9477 1.94772 11.5 2.5 11.5Z" fill="white"/>
<path fill-rule="evenodd" clip-rule="evenodd" d="M9.20711 20.2071C8.81658 20.5976 8.18342 20.5976 7.79289 20.2071L0.792893 13.2071C0.402369 12.8166 0.402369 12.1834 0.792893 11.7929L7.79289 4.79289C8.18342 4.40237 8.81658 4.40237 9.20711 4.79289C9.59763 5.18342 9.59763 5.81658 9.20711 6.20711L2.91421 12.5L9.20711 18.7929C9.59763 19.1834 9.59763 19.8166 9.20711 20.2071Z" fill="white"/>
</g>
</svg>
