<svg width="35" height="36" viewBox="0 0 35 36" fill="none" xmlns="http://www.w3.org/2000/svg">
<path fill-rule="evenodd" clip-rule="evenodd" d="M3.375 15.0833C3.375 14.531 3.82272 14.0833 4.375 14.0833H30.625C31.1773 14.0833 31.625 14.531 31.625 15.0833C31.625 15.6356 31.1773 16.0833 30.625 16.0833H4.375C3.82272 16.0833 3.375 15.6356 3.375 15.0833Z" fill="white"/>
<path fill-rule="evenodd" clip-rule="evenodd" d="M3.375 9.25C3.375 8.69772 3.82272 8.25 4.375 8.25H30.625C31.1773 8.25 31.625 8.69772 31.625 9.25C31.625 9.80228 31.1773 10.25 30.625 10.25H4.375C3.82272 10.25 3.375 9.80228 3.375 9.25Z" fill="white"/>
<path fill-rule="evenodd" clip-rule="evenodd" d="M3.375 20.9167C3.375 20.3644 3.82272 19.9167 4.375 19.9167H30.625C31.1773 19.9167 31.625 20.3644 31.625 20.9167C31.625 21.469 31.1773 21.9167 30.625 21.9167H4.375C3.82272 21.9167 3.375 21.469 3.375 20.9167Z" fill="white"/>
<path fill-rule="evenodd" clip-rule="evenodd" d="M3.375 26.75C3.375 26.1977 3.82272 25.75 4.375 25.75H30.625C31.1773 25.75 31.625 26.1977 31.625 26.75C31.625 27.3023 31.1773 27.75 30.625 27.75H4.375C3.82272 27.75 3.375 27.3023 3.375 26.75Z" fill="white"/>
</svg>
