<svg width="50" height="25" viewBox="0 0 50 25" fill="none" xmlns="http://www.w3.org/2000/svg">
<path fill-rule="evenodd" clip-rule="evenodd" d="M48.5 13.4295L3 13.4295C2.44772 13.4295 2 12.9818 2 12.4295C2 11.8772 2.44772 11.4295 3 11.4295L48.5 11.4295C49.0523 11.4295 49.5 11.8772 49.5 12.4295C49.5 12.9818 49.0523 13.4295 48.5 13.4295Z" fill="#21A038"/>
<path fill-rule="evenodd" clip-rule="evenodd" d="M41.2929 4.7224C41.6834 4.33187 42.3166 4.33187 42.7071 4.7224L49.7071 11.7224C50.0976 12.1129 50.0976 12.7461 49.7071 13.1366L42.7071 20.1366C42.3166 20.5271 41.6834 20.5271 41.2929 20.1366C40.9024 19.7461 40.9024 19.1129 41.2929 18.7224L47.5858 12.4295L41.2929 6.13661C40.9024 5.74609 40.9024 5.11292 41.2929 4.7224Z" fill="#21A038"/>
</svg>
