<svg width="50" height="24" viewBox="0 0 50 24" fill="none" xmlns="http://www.w3.org/2000/svg">
<path fill-rule="evenodd" clip-rule="evenodd" d="M47.5 13L2 13C1.44772 13 1 12.5523 1 12C1 11.4477 1.44772 11 2 11L47.5 11C48.0523 11 48.5 11.4477 48.5 12C48.5 12.5523 48.0523 13 47.5 13Z" fill="white"/>
<path fill-rule="evenodd" clip-rule="evenodd" d="M41.2929 4.29289C41.6834 3.90237 42.3166 3.90237 42.7071 4.29289L49.7071 11.2929C50.0976 11.6834 50.0976 12.3166 49.7071 12.7071L42.7071 19.7071C42.3166 20.0976 41.6834 20.0976 41.2929 19.7071C40.9024 19.3166 40.9024 18.6834 41.2929 18.2929L47.5858 12L41.2929 5.70711C40.9024 5.31658 40.9024 4.68342 41.2929 4.29289Z" fill="white"/>
</svg>
