<svg width="24" height="21" viewBox="0 0 24 21" fill="none" xmlns="http://www.w3.org/2000/svg">
<g clip-path="url(#clip0_111_3049)">
<path fill-rule="evenodd" clip-rule="evenodd" d="M12 -0.801788C12.5523 -0.801788 13 -0.354073 13 0.198212L13 19.1982C13 19.7505 12.5523 20.1982 12 20.1982C11.4477 20.1982 11 19.7505 11 19.1982L11 0.198212C11 -0.354073 11.4477 -0.801788 12 -0.801788Z" fill="white"/>
<path fill-rule="evenodd" clip-rule="evenodd" d="M4.29289 11.4911C4.68342 11.1006 5.31658 11.1006 5.70711 11.4911L12 17.784L18.2929 11.4911C18.6834 11.1006 19.3166 11.1006 19.7071 11.4911C20.0976 11.8816 20.0976 12.5148 19.7071 12.9053L12.7071 19.9053C12.3166 20.2958 11.6834 20.2958 11.2929 19.9053L4.29289 12.9053C3.90237 12.5148 3.90237 11.8816 4.29289 11.4911Z" fill="white"/>
</g>
<defs>
<clipPath id="clip0_111_3049">
<rect width="24" height="20" fill="white" transform="translate(0 0.198212)"/>
</clipPath>
</defs>
</svg>
