<svg width="76" height="75" viewBox="0 0 76 75" fill="none" xmlns="http://www.w3.org/2000/svg">
<path fill-rule="evenodd" clip-rule="evenodd" d="M7.5 21.5001V63.2501C7.5 65.5973 9.40279 67.5001 11.75 67.5001H64.25C66.5972 67.5001 68.5 65.5973 68.5 63.2501V25.7501C68.5 23.4029 66.5972 21.5001 64.25 21.5001H7.5ZM0.5 63.2501C0.5 69.4633 5.5368 74.5001 11.75 74.5001H64.25C70.4632 74.5001 75.5 69.4633 75.5 63.2501V25.7501C75.5 19.5369 70.4632 14.5001 64.25 14.5001H11.75V7.00012H0.5V63.2501Z" fill="white"/>
<path d="M53 44.5C53 40.3579 56.3579 37 60.5 37H75.5V52H60.5C56.3579 52 53 48.6421 53 44.5Z" fill="#21A038"/>
<path d="M7.5 0C3.35786 0 0 3.35786 0 7.5C0 11.6421 3.35786 15 7.5 15H63.75C65.0649 15 66.3271 15.2256 67.5 15.6401V3.75C67.5 1.67893 65.8211 0 63.75 0H7.5Z" fill="#21A038"/>
</svg>
