<svg width="69" height="80" viewBox="0 0 69 80" fill="none" xmlns="http://www.w3.org/2000/svg">
<g clip-path="url(#clip0_126_202)">
<path fill-rule="evenodd" clip-rule="evenodd" d="M32.4445 5.95563L9.44452 13.6223C6.7903 14.507 5 16.9909 5 19.7887V40.25C5 48.9823 9.38998 56.2537 15.3142 62.1159C21.2464 67.986 28.3258 72.034 32.6537 74.1753C33.8346 74.7596 35.1654 74.7596 36.3463 74.1753C40.6742 72.034 47.7536 67.986 53.6858 62.1159C59.61 56.2537 64 48.9823 64 40.25V19.7887C64 16.9909 62.2097 14.507 59.5555 13.6223L36.5555 5.95563C35.2213 5.51088 33.7788 5.51088 32.4445 5.95563ZM7.86338 8.87888C3.16745 10.4442 0 14.8388 0 19.7887V40.25C0 61.3411 21.3141 74.1433 30.4364 78.6568C33.0147 79.9324 35.9854 79.9324 38.5636 78.6568C47.6859 74.1434 69 61.3411 69 40.25V19.7887C69 14.8388 65.8326 10.4442 61.1366 8.87888L38.1366 1.21221C35.7761 0.425356 33.224 0.425356 30.8634 1.21221L7.86338 8.87888Z" fill="white"/>
<path fill-rule="evenodd" clip-rule="evenodd" d="M48.7998 31.0761C50.2968 32.5731 50.2968 35.0003 48.7998 36.4973L35.6349 49.6622C32.9403 52.3568 28.5715 52.3568 25.8768 49.6622L20.3786 44.164C18.8816 42.6669 18.8816 40.2398 20.3786 38.7428C21.8756 37.2458 24.3028 37.2458 25.7998 38.7428L30.7559 43.6989L43.3786 31.0761C44.8756 29.5791 47.3028 29.5791 48.7998 31.0761Z" fill="#21A038"/>
</g>
<defs>
<clipPath id="clip0_126_202">
<rect width="69" height="80" fill="white"/>
</clipPath>
</defs>
</svg>
