<svg width="103" height="103" viewBox="0 0 103 103" fill="none" xmlns="http://www.w3.org/2000/svg">
<path d="M93.3438 51.5H77.25V38.625C77.25 31.5236 83.0236 25.75 90.125 25.75H91.7344C94.41 25.75 96.5625 23.5975 96.5625 20.9219V11.2656C96.5625 8.59004 94.41 6.4375 91.7344 6.4375H90.125C72.3414 6.4375 57.9375 20.8414 57.9375 38.625V86.9062C57.9375 92.2373 62.2627 96.5625 67.5938 96.5625H93.3438C98.6748 96.5625 103 92.2373 103 86.9062V61.1562C103 55.8252 98.6748 51.5 93.3438 51.5ZM35.4062 51.5H19.3125V38.625C19.3125 31.5236 25.0861 25.75 32.1875 25.75H33.7969C36.4725 25.75 38.625 23.5975 38.625 20.9219V11.2656C38.625 8.59004 36.4725 6.4375 33.7969 6.4375H32.1875C14.4039 6.4375 0 20.8414 0 38.625V86.9062C0 92.2373 4.3252 96.5625 9.65625 96.5625H35.4062C40.7373 96.5625 45.0625 92.2373 45.0625 86.9062V61.1562C45.0625 55.8252 40.7373 51.5 35.4062 51.5Z" fill="#404145" fill-opacity="0.5"/>
<path d="M76.75 51.5V52H77.25H93.3438C98.3987 52 102.5 56.1013 102.5 61.1562V86.9062C102.5 91.9612 98.3987 96.0625 93.3438 96.0625H67.5938C62.5388 96.0625 58.4375 91.9612 58.4375 86.9062V38.625C58.4375 21.1175 72.6176 6.9375 90.125 6.9375H91.7344C94.1338 6.9375 96.0625 8.86618 96.0625 11.2656V20.9219C96.0625 23.3213 94.1338 25.25 91.7344 25.25H90.125C82.7475 25.25 76.75 31.2475 76.75 38.625V51.5ZM18.8125 51.5V52H19.3125H35.4062C40.4612 52 44.5625 56.1013 44.5625 61.1562V86.9062C44.5625 91.9612 40.4612 96.0625 35.4062 96.0625H9.65625C4.60134 96.0625 0.5 91.9612 0.5 86.9062V38.625C0.5 21.1175 14.68 6.9375 32.1875 6.9375H33.7969C36.1963 6.9375 38.125 8.86618 38.125 11.2656V20.9219C38.125 23.3213 36.1963 25.25 33.7969 25.25H32.1875C24.81 25.25 18.8125 31.2475 18.8125 38.625V51.5Z" stroke="white" stroke-opacity="0.2"/>
</svg>
