<svg xmlns="http://www.w3.org/2000/svg" xmlns:xlink="http://www.w3.org/1999/xlink"><symbol id="icon-arr-back" viewBox="0 0 50 25"><g opacity="0.7" fill-rule="evenodd" clip-rule="evenodd"><path d="M2.5 11.5H48a1 1 0 110 2H2.5a1 1 0 110-2z"/><path d="M9.207 20.207a1 1 0 01-1.414 0l-7-7a1 1 0 010-1.414l7-7a1 1 0 011.414 1.414L2.914 12.5l6.293 6.293a1 1 0 010 1.414z"/></g></symbol><symbol id="icon-arr-down" viewBox="0 0 24 50"><g opacity="0.7" clip-path="url(#clip0_202_115)" fill-rule="evenodd" clip-rule="evenodd"><path d="M11 47.5V2a1 1 0 112 0v45.5a1 1 0 11-2 0z"/><path d="M19.707 40.793a1 1 0 010 1.414l-7 7a1 1 0 01-1.414 0l-7-7a1 1 0 111.414-1.414L12 47.086l6.293-6.293a1 1 0 011.414 0z"/></g><defs><clipPath id="clip0_202_115"><path transform="rotate(90 12 12)" d="M0 0h50v24H0z"/></clipPath></defs></symbol><symbol id="icon-arr-long" viewBox="0 0 50 24"><path fill-rule="evenodd" clip-rule="evenodd" d="M47.5 13H2a1 1 0 110-2h45.5a1 1 0 110 2z"/><path fill-rule="evenodd" clip-rule="evenodd" d="M41.293 4.293a1 1 0 011.414 0l7 7a1 1 0 010 1.414l-7 7a1 1 0 01-1.414-1.414L47.586 12l-6.293-6.293a1 1 0 010-1.414z"/></symbol><symbol id="icon-arrow-left" viewBox="0 0 20 24"><g opacity="0.7" clip-path="url(#clip0_111_3039)" fill-rule="evenodd" clip-rule="evenodd"><path d="M0 12a1 1 0 011-1h19a1 1 0 110 2H1a1 1 0 01-1-1z"/><path d="M8.707 4.293a1 1 0 010 1.414L2.414 12l6.293 6.293a1 1 0 11-1.414 1.414l-7-7a1 1 0 010-1.414l7-7a1 1 0 011.414 0z"/></g><defs><clipPath id="clip0_111_3039"><path d="M0 0h20v24H0z"/></clipPath></defs></symbol><symbol id="icon-arrow-right" viewBox="0 0 20 24"><g clip-path="url(#clip0_111_3042)" fill-rule="evenodd" clip-rule="evenodd"><path d="M-1 12a1 1 0 011-1h19a1 1 0 110 2H0a1 1 0 01-1-1z"/><path d="M11.293 4.293a1 1 0 011.414 0l7 7a1 1 0 010 1.414l-7 7a1 1 0 01-1.414-1.414L17.586 12l-6.293-6.293a1 1 0 010-1.414z"/></g><defs><clipPath id="clip0_111_3042"><path d="M0 0h20v24H0z"/></clipPath></defs></symbol><symbol id="icon-arrowbtn_scroll" viewBox="0 0 24 21"><g clip-path="url(#clip0_111_3049)" fill-rule="evenodd" clip-rule="evenodd"><path d="M12-.802a1 1 0 011 1v19a1 1 0 11-2 0v-19a1 1 0 011-1z"/><path d="M4.293 11.491a1 1 0 011.414 0L12 17.784l6.293-6.293a1 1 0 011.414 1.414l-7 7a1 1 0 01-1.414 0l-7-7a1 1 0 010-1.414z"/></g><defs><clipPath id="clip0_111_3049"><path transform="translate(0 .198)" d="M0 0h24v20H0z"/></clipPath></defs></symbol><symbol id="icon-arrow_button" viewBox="0 0 50 25"><path fill-rule="evenodd" clip-rule="evenodd" d="M48.5 13.43H3a1 1 0 110-2h45.5a1 1 0 110 2z"/><path fill-rule="evenodd" clip-rule="evenodd" d="M41.293 4.722a1 1 0 011.414 0l7 7a1 1 0 010 1.415l-7 7a1 1 0 01-1.414-1.415l6.293-6.293-6.293-6.292a1 1 0 010-1.415z"/></symbol><symbol id="icon-menu_burger" viewBox="0 0 35 36"><path fill-rule="evenodd" clip-rule="evenodd" d="M3.375 15.083a1 1 0 011-1h26.25a1 1 0 110 2H4.375a1 1 0 01-1-1zM3.375 9.25a1 1 0 011-1h26.25a1 1 0 110 2H4.375a1 1 0 01-1-1zM3.375 20.917a1 1 0 011-1h26.25a1 1 0 110 2H4.375a1 1 0 01-1-1zM3.375 26.75a1 1 0 011-1h26.25a1 1 0 110 2H4.375a1 1 0 01-1-1z"/></symbol><symbol id="icon-search" viewBox="0 0 24 24"><path fill-rule="evenodd" clip-rule="evenodd" d="M11 4a7 7 0 100 14 7 7 0 000-14zm-9 7a9 9 0 1118 0 9 9 0 01-18 0z"/><path fill-rule="evenodd" clip-rule="evenodd" d="M15.943 15.943a1 1 0 011.414 0l4.35 4.35a1 1 0 01-1.414 1.414l-4.35-4.35a1 1 0 010-1.414z"/></symbol><symbol id="icon-telegram" viewBox="0 0 20 16"><path d="M19.433 1.542l-2.825 13.322c-.213.94-.769 1.175-1.559.732l-4.304-3.172-2.077 1.997c-.23.23-.422.423-.865.423l.31-4.384L16.09 3.25c.347-.31-.075-.48-.54-.171L5.69 9.29 1.443 7.96c-.924-.288-.94-.923.192-1.366L18.242.196c.77-.288 1.442.172 1.191 1.346z"/></symbol><symbol id="icon-whatsapp" viewBox="0 0 20 20"><path d="M16.858 3.058a9.207 9.207 0 00-6.56-2.72C5.181.337 1.02 4.5 1.02 9.614c0 1.634.426 3.23 1.237 4.638L.941 19.06l4.918-1.291a9.249 9.249 0 004.434 1.128h.004c5.111 0 9.366-4.162 9.366-9.277 0-2.478-1.054-4.806-2.805-6.561zm-6.56 14.275a7.697 7.697 0 01-3.929-1.074l-.28-.167-2.917.765.778-2.846-.184-.293a7.685 7.685 0 01-1.179-4.103c0-4.25 3.46-7.71 7.715-7.71 2.06 0 3.995.802 5.449 2.26C17.205 5.624 18.1 7.56 18.095 9.62c0 4.254-3.548 7.714-7.798 7.714zm4.229-5.775c-.23-.117-1.371-.677-1.584-.752-.213-.08-.368-.117-.523.117-.154.234-.597.752-.735.91-.134.155-.272.176-.502.06-1.362-.682-2.256-1.217-3.155-2.759-.238-.41.238-.38.681-1.266.076-.155.038-.289-.02-.406-.059-.117-.523-1.257-.715-1.721-.188-.452-.38-.389-.522-.397-.134-.009-.289-.009-.443-.009a.859.859 0 00-.619.289c-.213.234-.81.794-.81 1.935 0 1.14.831 2.244.944 2.398.117.155 1.634 2.495 3.962 3.502 1.47.636 2.047.69 2.783.581.447-.067 1.37-.56 1.563-1.103.192-.543.192-1.007.133-1.103-.054-.105-.209-.163-.438-.276z"/></symbol><symbol id="icon-youtube" viewBox="0 0 21 15"><path d="M20.117 2.93a2.549 2.549 0 00-1.794-1.805C16.741.698 10.397.698 10.397.698s-6.344 0-7.926.427A2.55 2.55 0 00.678 2.93C.254 4.522.254 7.845.254 7.845s0 3.322.424 4.914c.233.879.92 1.542 1.793 1.777 1.582.426 7.926.426 7.926.426s6.344 0 7.926-.426a2.51 2.51 0 001.794-1.777c.424-1.592.424-4.914.424-4.914s0-3.323-.424-4.915zM8.322 10.861V4.828l5.303 3.017-5.303 3.016z"/></symbol> <view id="icon-arr-back-view-green" viewBox="0 0 50 25"/><view id="icon-arr-back-view-dark" viewBox="0 35 50 25"/><view id="icon-arr-back-view-white" viewBox="0 70 50 25"/><view id="icon-arr-down-view-green" viewBox="0 105 24 50"/><view id="icon-arr-down-view-dark" viewBox="0 165 24 50"/><view id="icon-arr-down-view-white" viewBox="0 225 24 50"/><view id="icon-arr-long-view-green" viewBox="0 285 50 24"/><view id="icon-arr-long-view-dark" viewBox="0 319 50 24"/><view id="icon-arr-long-view-white" viewBox="0 353 50 24"/><view id="icon-arrow-left-view-green" viewBox="0 387 20 24"/><view id="icon-arrow-left-view-dark" viewBox="0 421 20 24"/><view id="icon-arrow-left-view-white" viewBox="0 455 20 24"/><view id="icon-arrow-right-view-green" viewBox="0 489 20 24"/><view id="icon-arrow-right-view-dark" viewBox="0 523 20 24"/><view id="icon-arrow-right-view-white" viewBox="0 557 20 24"/><view id="icon-arrowbtn_scroll-view-green" viewBox="0 591 24 21"/><view id="icon-arrowbtn_scroll-view-dark" viewBox="0 622 24 21"/><view id="icon-arrowbtn_scroll-view-white" viewBox="0 653 24 21"/><view id="icon-arrow_button-view-green" viewBox="0 684 50 25"/><view id="icon-arrow_button-view-dark" viewBox="0 719 50 25"/><view id="icon-arrow_button-view-white" viewBox="0 754 50 25"/><view id="icon-menu_burger-view-green" viewBox="0 789 35 36"/><view id="icon-menu_burger-view-dark" viewBox="0 835 35 36"/><view id="icon-menu_burger-view-white" viewBox="0 881 35 36"/><view id="icon-search-view-green" viewBox="0 927 24 24"/><view id="icon-search-view-dark" viewBox="0 961 24 24"/><view id="icon-search-view-white" viewBox="0 995 24 24"/><view id="icon-telegram-view-green" viewBox="0 1029 20 16"/><view id="icon-telegram-view-dark" viewBox="0 1055 20 16"/><view id="icon-telegram-view-white" viewBox="0 1081 20 16"/><view id="icon-whatsapp-view-green" viewBox="0 1107 20 20"/><view id="icon-whatsapp-view-dark" viewBox="0 1137 20 20"/><view id="icon-whatsapp-view-white" viewBox="0 1167 20 20"/><view id="icon-youtube-view-green" viewBox="0 1197 21 15"/><view id="icon-youtube-view-dark" viewBox="0 1222 21 15"/><view id="icon-youtube-view-white" viewBox="0 1247 21 15"/> <use xlink:href="#icon-arr-back" x="0" y="0" width="50" height="25" style="fill:#21A038"/><use xlink:href="#icon-arr-back" x="0" y="35" width="50" height="25" style="fill:#404145"/><use xlink:href="#icon-arr-back" x="0" y="70" width="50" height="25" style="fill:#ffffff"/><use xlink:href="#icon-arr-down" x="0" y="105" width="24" height="50" style="fill:#21A038"/><use xlink:href="#icon-arr-down" x="0" y="165" width="24" height="50" style="fill:#404145"/><use xlink:href="#icon-arr-down" x="0" y="225" width="24" height="50" style="fill:#ffffff"/><use xlink:href="#icon-arr-long" x="0" y="285" width="50" height="24" style="fill:#21A038"/><use xlink:href="#icon-arr-long" x="0" y="319" width="50" height="24" style="fill:#404145"/><use xlink:href="#icon-arr-long" x="0" y="353" width="50" height="24" style="fill:#ffffff"/><use xlink:href="#icon-arrow-left" x="0" y="387" width="20" height="24" style="fill:#21A038"/><use xlink:href="#icon-arrow-left" x="0" y="421" width="20" height="24" style="fill:#404145"/><use xlink:href="#icon-arrow-left" x="0" y="455" width="20" height="24" style="fill:#ffffff"/><use xlink:href="#icon-arrow-right" x="0" y="489" width="20" height="24" style="fill:#21A038"/><use xlink:href="#icon-arrow-right" x="0" y="523" width="20" height="24" style="fill:#404145"/><use xlink:href="#icon-arrow-right" x="0" y="557" width="20" height="24" style="fill:#ffffff"/><use xlink:href="#icon-arrowbtn_scroll" x="0" y="591" width="24" height="21" style="fill:#21A038"/><use xlink:href="#icon-arrowbtn_scroll" x="0" y="622" width="24" height="21" style="fill:#404145"/><use xlink:href="#icon-arrowbtn_scroll" x="0" y="653" width="24" height="21" style="fill:#ffffff"/><use xlink:href="#icon-arrow_button" x="0" y="684" width="50" height="25" style="fill:#21A038"/><use xlink:href="#icon-arrow_button" x="0" y="719" width="50" height="25" style="fill:#404145"/><use xlink:href="#icon-arrow_button" x="0" y="754" width="50" height="25" style="fill:#ffffff"/><use xlink:href="#icon-menu_burger" x="0" y="789" width="35" height="36" style="fill:#21A038"/><use xlink:href="#icon-menu_burger" x="0" y="835" width="35" height="36" style="fill:#404145"/><use xlink:href="#icon-menu_burger" x="0" y="881" width="35" height="36" style="fill:#ffffff"/><use xlink:href="#icon-search" x="0" y="927" width="24" height="24" style="fill:#21A038"/><use xlink:href="#icon-search" x="0" y="961" width="24" height="24" style="fill:#404145"/><use xlink:href="#icon-search" x="0" y="995" width="24" height="24" style="fill:#ffffff"/><use xlink:href="#icon-telegram" x="0" y="1029" width="20" height="16" style="fill:#21A038"/><use xlink:href="#icon-telegram" x="0" y="1055" width="20" height="16" style="fill:#404145"/><use xlink:href="#icon-telegram" x="0" y="1081" width="20" height="16" style="fill:#ffffff"/><use xlink:href="#icon-whatsapp" x="0" y="1107" width="20" height="20" style="fill:#21A038"/><use xlink:href="#icon-whatsapp" x="0" y="1137" width="20" height="20" style="fill:#404145"/><use xlink:href="#icon-whatsapp" x="0" y="1167" width="20" height="20" style="fill:#ffffff"/><use xlink:href="#icon-youtube" x="0" y="1197" width="21" height="15" style="fill:#21A038"/><use xlink:href="#icon-youtube" x="0" y="1222" width="21" height="15" style="fill:#404145"/><use xlink:href="#icon-youtube" x="0" y="1247" width="21" height="15" style="fill:#ffffff"/></svg>